<?xml version="1.0" encoding="utf-8"?>
<!-- Generator: Adobe Illustrator 17.0.0, SVG Export Plug-In . SVG Version: 6.00 Build 0)  -->
<!DOCTYPE svg PUBLIC "-//W3C//DTD SVG 1.1//EN" "http://www.w3.org/Graphics/SVG/1.1/DTD/svg11.dtd">
<svg version="1.1" id="Layer_1" xmlns="http://www.w3.org/2000/svg" xmlns:xlink="http://www.w3.org/1999/xlink" x="0px" y="0px"
	 width="82px" height="58.75px" viewBox="0 0 82 58.75" enable-background="new 0 0 82 58.75" xml:space="preserve">
<g>
	<g>
		<path fill="#0072BC" d="M80.266,1.552c-0.136-0.136-0.283-0.168-0.514-0.175H7.701c-0.234,0-0.493-0.043-0.493,0.228
			c0,0.233,0.337,0.32,0.337,0.32c4.167,1.292,5.157,5.488,5.157,5.488c7.165,5.497,12.012,4.65,19.639,7.5
			c7.634,2.851,3.444,10.426,2.61,9.593c-1.037-1.036-3.373-2.115-6.621-2.884c-1.697-0.335-3.499-0.538-5.235-0.538
			c-8.833,0-16.259,3.742-19.598,9.995c-1.216,2.277-1.894,4.885-1.894,7.77c0,5.402,1.982,9.629,5.188,12.629
			c1.266,1.185,2.726,2.173,4.328,2.971c4.443,2.402,11.012,3.712,20.729,2.413c26.125-3.492,45.072-37.249,48.393-53.952
			l0.14-0.782C80.402,1.995,80.422,1.708,80.266,1.552z"/>
		<circle fill="#0072BC" cx="6.674" cy="8.257" r="1.704"/>
	</g>
</g>
</svg>
